<svg width="198" height="36" viewBox="0 0 198 36" fill="none" xmlns="http://www.w3.org/2000/svg">
<g clip-path="url(#clip0_4_54)">
<path d="M88.3283 3.87817C88.3283 1.58545 89.694 0.393402 91.7603 0.393402C93.8265 0.393402 95.1923 1.58545 95.1923 3.87817V13.3232H95.2901C96.6481 11.0782 99 9.78678 102.056 9.78678C109.296 9.78678 112.622 16.0411 112.622 22.7245C112.622 31.7444 107.594 35.9921 101.857 35.9921C98.5226 35.9921 95.748 34.5656 94.621 31.6212H94.527V32.7179C94.527 34.8636 93.443 36.008 91.4238 36.008C89.3066 36.008 88.3205 34.8636 88.3205 32.7179L88.3283 3.87817ZM100.319 15.2384C96.1315 15.1908 94.8166 19.3907 94.8166 22.9709C94.8166 26.9444 96.3233 30.5643 100.319 30.5643C103.986 30.4649 105.77 27.0755 105.77 22.9709C105.77 19.7245 104.69 15.2384 100.319 15.2384Z" fill="#00AEEF"/>
<path d="M120.856 0.210571C121.563 0.210571 122.254 0.423338 122.841 0.821968C123.429 1.2206 123.887 1.78718 124.157 2.45008C124.427 3.11297 124.498 3.84241 124.36 4.54614C124.222 5.24987 123.882 5.89628 123.383 6.40364C122.883 6.911 122.246 7.25651 121.553 7.39649C120.86 7.53647 120.142 7.46463 119.489 7.19005C118.836 6.91547 118.278 6.45048 117.885 5.85389C117.493 5.2573 117.283 4.5559 117.283 3.83839C117.284 2.87655 117.661 1.95441 118.331 1.27429C119.001 0.594173 119.909 0.211623 120.856 0.210571ZM117.424 13.2874C117.424 11.4278 118.175 9.80262 120.856 9.80262C123.537 9.80262 124.292 11.4278 124.292 13.2874V32.5271C124.292 34.3867 123.541 36.0079 120.856 36.0079C118.172 36.0079 117.424 34.3867 117.424 32.5271V13.2874Z" fill="#00AEEF"/>
<path d="M130.495 3.87817C130.495 1.58545 131.857 0.393402 133.927 0.393402C135.997 0.393402 137.355 1.58545 137.355 3.87817V32.5192C137.355 34.804 135.993 36 133.927 36C131.86 36 130.495 34.808 130.495 32.5192V3.87817Z" fill="#00AEEF"/>
<path d="M146.993 0.210571C147.7 0.210571 148.391 0.423338 148.978 0.821968C149.566 1.2206 150.024 1.78718 150.294 2.45008C150.565 3.11297 150.635 3.84241 150.498 4.54614C150.36 5.24987 150.019 5.89628 149.52 6.40364C149.02 6.911 148.383 7.25651 147.69 7.39649C146.997 7.53647 146.279 7.46463 145.626 7.19005C144.973 6.91547 144.415 6.45048 144.023 5.85389C143.63 5.2573 143.42 4.5559 143.42 3.83839C143.42 2.87623 143.797 1.95348 144.467 1.27313C145.137 0.592788 146.046 0.210571 146.993 0.210571ZM143.561 13.2874C143.561 11.4278 144.317 9.80262 146.993 9.80262C149.67 9.80262 150.425 11.4278 150.425 13.2874V32.5271C150.425 34.3867 149.67 36.0079 146.993 36.0079C144.317 36.0079 143.561 34.3867 143.561 32.5271V13.2874Z" fill="#00AEEF"/>
<path d="M158.041 15.004H156.867C154.937 15.004 154.127 14.2371 154.127 12.7073C154.127 11.1775 154.91 10.4146 156.867 10.4146H158.041V6.17087C158.041 3.87815 159.407 2.68213 161.473 2.68213C163.539 2.68213 164.905 3.87418 164.905 6.17087V10.4146H166.975C168.994 10.4146 170.074 11.0344 170.074 12.7073C170.074 14.3801 168.994 15.004 166.975 15.004H164.905V28.9391C164.905 29.9881 165.468 30.5643 166.689 30.5643H167.679C169.182 30.5643 170.074 31.4186 170.074 32.8967C170.074 34.9033 168.384 36 165.097 36C160.111 36 158.053 33.906 158.053 29.7974L158.041 15.004Z" fill="#00AEEF"/>
<path d="M179.478 24.2106C179.478 27.8861 181.826 30.5682 185.822 30.5682C190.995 30.5682 190.995 27.1271 193.766 27.1271C194.489 27.1291 195.185 27.4122 195.71 27.9183C196.234 28.4245 196.548 29.1152 196.587 29.849C196.587 34.049 189.958 36.004 185.822 36.004C176.234 36.004 172.614 29.4199 172.614 23.3563C172.614 15.2424 177.455 9.79868 185.591 9.79868C193.484 9.79868 198 15.4808 198 21.2106C198 23.5947 197.292 24.2146 194.991 24.2146L179.478 24.2106ZM191.512 20.2013C191.12 17.0225 188.772 14.6662 185.728 14.6662C182.296 14.6662 180.229 16.8159 179.466 20.2013H191.512Z" fill="#00AEEF"/>
<path d="M82.4035 28.649V16.9589C82.4035 11.9444 77.8483 9.80661 71.2661 9.80661C70.5797 9.80945 69.894 9.84791 69.2115 9.92185L61.3418 18.1271C61.8964 18.5567 62.5776 18.7836 63.275 18.7708C66.0143 18.7708 66.1435 14.9523 71.2191 14.9523C73.5241 14.9523 75.5434 15.8106 75.5434 17.8172C75.5434 19.8238 74.2285 20.2013 72.5848 20.396L68.3976 20.8728C63.1341 21.4927 58.8059 23.1179 58.8059 28.8954C58.8059 33.2662 62.6606 36.004 66.5622 36.004C70.1821 36.004 73.2853 34.9589 75.9543 31.947C76.0521 34.0967 77.0343 36.004 80.0007 36.004C81.6404 36.004 83.1 34.9073 83.1 33.3298C83.1118 32.2291 82.4035 31.5616 82.4035 28.649ZM75.5434 26.3603C75.5434 28.9391 73.2423 31.4185 69.4816 31.4185C67.1336 31.4185 65.67 30.1311 65.67 28.5536C65.67 26.4516 67.2353 25.5457 70.092 25.1165L72.5848 24.7391C73.3675 24.592 74.792 24.3417 75.5434 23.6384V26.3603Z" fill="#00AEEF"/>
<path d="M0 4.58146C0 1.09669 1.78449 0 4.51601 0H17.344C26.513 0 28.9588 5.10993 28.9588 9.53642C28.9588 13.2596 26.7947 16.9351 23.1279 17.7934V17.8887C27.0765 18.4649 27.7848 21.3735 27.7848 24.8583C27.7848 28.8318 28.8179 30.298 28.8179 31.9232C28.8179 33.7351 26.9826 34.9748 25.1942 34.9748C20.9638 34.9748 20.6351 30.8265 20.6351 29.4397C20.6351 23.4278 19.555 20.992 15.3247 20.992H7.70931V31.0649C7.70931 33.4013 6.20266 34.9748 3.85465 34.9748C1.50664 34.9748 0 33.3854 0 31.0649V4.58146ZM7.70931 15.2742H15.4186C18.3341 15.2742 21.2495 14.5073 21.2495 10.645C21.2495 6.96556 19.0385 6.01589 15.6534 6.01589H7.70931V15.2742Z" fill="#2E3192"/>
<path d="M46.1619 34.9828C46.4319 34.9828 46.7176 34.9828 47.0072 34.9629L55.4052 26.4358C55.0053 26.2154 54.5572 26.1006 54.1021 26.102C51.3354 26.102 51.3354 29.5391 46.1619 29.5391C42.1664 29.5391 39.8145 26.8689 39.8145 23.1815H55.327C57.6319 23.1815 58.3403 22.5616 58.3403 20.1735C58.3403 14.4437 53.8243 8.76556 45.9232 8.76556C37.7952 8.76556 32.9543 14.2093 32.9543 22.3232C32.9543 28.3987 36.5703 34.9828 46.1619 34.9828ZM46.068 13.649C49.1243 13.649 51.4723 15.9894 51.8519 19.1881H39.8145C40.5658 15.7947 42.636 13.649 46.068 13.649Z" fill="#2E3192"/>
</g>
<defs>
<clipPath id="clip0_4_54">
<rect width="198" height="36" fill="white"/>
</clipPath>
</defs>
</svg>
