<svg width="240" height="44" viewBox="0 0 240 44" fill="none" xmlns="http://www.w3.org/2000/svg">
<g clip-path="url(#clip0_16_106)">
<path d="M107.065 4.74011C107.065 1.93791 108.72 0.480957 111.225 0.480957C113.729 0.480957 115.385 1.93791 115.385 4.74011V16.284H115.503C117.149 13.5401 120 11.9618 123.705 11.9618C132.48 11.9618 136.512 19.6059 136.512 27.7746C136.512 38.7988 130.417 43.9904 123.463 43.9904C119.421 43.9904 116.058 42.247 114.692 38.6483H114.578V39.9887C114.578 42.6112 113.264 44.0099 110.817 44.0099C108.25 44.0099 107.055 42.6112 107.055 39.9887L107.065 4.74011ZM121.599 18.6249C116.523 18.5666 114.929 23.6999 114.929 28.0757C114.929 32.9322 116.755 37.3565 121.599 37.3565C126.043 37.2351 128.206 33.0924 128.206 28.0757C128.206 24.1079 126.897 18.6249 121.599 18.6249Z" fill="#00AEEF"/>
<path d="M146.492 0.257324C147.349 0.257324 148.186 0.517373 148.898 1.00459C149.61 1.4918 150.166 2.18429 150.493 2.9945C150.821 3.80471 150.907 4.69624 150.74 5.55635C150.573 6.41646 150.16 7.20653 149.555 7.82663C148.949 8.44674 148.177 8.86903 147.337 9.04011C146.497 9.2112 145.626 9.12339 144.835 8.7878C144.044 8.4522 143.367 7.88388 142.891 7.15472C142.415 6.42555 142.161 5.56828 142.161 4.69132C142.163 3.51575 142.619 2.38869 143.431 1.55743C144.243 0.726171 145.344 0.25861 146.492 0.257324ZM142.332 16.2401C142.332 13.9673 143.243 11.9809 146.492 11.9809C149.741 11.9809 150.657 13.9673 150.657 16.2401V39.7553C150.657 42.0282 149.746 44.0096 146.492 44.0096C143.238 44.0096 142.332 42.0282 142.332 39.7553V16.2401Z" fill="#00AEEF"/>
<path d="M158.175 4.74011C158.175 1.93791 159.826 0.480957 162.335 0.480957C164.845 0.480957 166.491 1.93791 166.491 4.74011V39.7458C166.491 42.5383 164.84 44.0002 162.335 44.0002C159.831 44.0002 158.175 42.5432 158.175 39.7458V4.74011Z" fill="#00AEEF"/>
<path d="M178.174 0.257324C179.03 0.257324 179.868 0.517373 180.58 1.00459C181.292 1.4918 181.847 2.18429 182.175 2.9945C182.503 3.80471 182.588 4.69624 182.421 5.55635C182.254 6.41646 181.842 7.20653 181.236 7.82663C180.63 8.44674 179.859 8.86903 179.019 9.04011C178.179 9.2112 177.308 9.12339 176.516 8.7878C175.725 8.4522 175.049 7.88388 174.573 7.15472C174.097 6.42555 173.843 5.56828 173.843 4.69132C173.843 3.51535 174.299 2.38755 175.111 1.55601C175.924 0.724477 177.025 0.257324 178.174 0.257324ZM174.014 16.2401C174.014 13.9673 174.929 11.9809 178.174 11.9809C181.418 11.9809 182.334 13.9673 182.334 16.2401V39.7553C182.334 42.0282 181.418 44.0096 178.174 44.0096C174.929 44.0096 174.014 42.0282 174.014 39.7553V16.2401Z" fill="#00AEEF"/>
<path d="M191.565 18.3384H190.142C187.803 18.3384 186.821 17.4011 186.821 15.5313C186.821 13.6615 187.77 12.7291 190.142 12.7291H191.565V7.54234C191.565 4.74013 193.22 3.27832 195.725 3.27832C198.229 3.27832 199.885 4.73527 199.885 7.54234V12.7291H202.394C204.842 12.7291 206.151 13.4867 206.151 15.5313C206.151 17.5759 204.842 18.3384 202.394 18.3384H199.885V35.3701C199.885 36.6523 200.568 37.3565 202.048 37.3565H203.248C205.069 37.3565 206.151 38.4006 206.151 40.2072C206.151 42.6598 204.102 44.0002 200.117 44.0002C194.074 44.0002 191.579 41.4408 191.579 36.4192L191.565 18.3384Z" fill="#00AEEF"/>
<path d="M217.549 29.5906C217.549 34.0829 220.395 37.3611 225.238 37.3611C231.509 37.3611 231.509 33.1553 234.868 33.1553C235.745 33.1577 236.588 33.5037 237.224 34.1223C237.86 34.7409 238.24 35.5852 238.288 36.482C238.288 41.6154 230.252 44.0048 225.238 44.0048C213.617 44.0048 209.229 35.9575 209.229 28.5465C209.229 18.6295 215.097 11.9761 224.958 11.9761C234.526 11.9761 240 18.9209 240 25.924C240 28.8379 239.141 29.5955 236.352 29.5955L217.549 29.5906ZM232.135 24.6904C231.661 20.8052 228.815 17.9253 225.125 17.9253C220.965 17.9253 218.46 20.5527 217.535 24.6904H232.135Z" fill="#00AEEF"/>
<path d="M99.883 35.0154V20.7276C99.883 14.5986 94.3616 11.9858 86.3831 11.9858C85.5512 11.9893 84.72 12.0363 83.8928 12.1267L74.3537 22.1554C75.0259 22.6804 75.8516 22.9577 76.697 22.9421C80.0174 22.9421 80.1739 18.275 86.3262 18.275C89.1201 18.275 91.5677 19.324 91.5677 21.7766C91.5677 24.2291 89.9739 24.6905 87.9816 24.9284L82.9062 25.5112C76.5262 26.2688 71.2799 28.2552 71.2799 35.3165C71.2799 40.6587 75.9522 44.0048 80.6815 44.0048C85.0692 44.0048 88.8307 42.7276 92.0658 39.0463C92.1844 41.6737 93.375 44.0048 96.9705 44.0048C98.958 44.0048 100.727 42.6644 100.727 40.7364C100.742 39.3911 99.883 38.5753 99.883 35.0154ZM91.5677 32.2181C91.5677 35.3699 88.7786 38.4004 84.2201 38.4004C81.374 38.4004 79.6 36.8269 79.6 34.8989C79.6 32.3298 81.4973 31.2225 84.9601 30.698L87.9816 30.2366C88.9303 30.0569 90.657 29.751 91.5677 28.8914V32.2181Z" fill="#00AEEF"/>
<path d="M0 5.59956C0 1.3404 2.16302 0 5.47395 0H21.023C32.1369 0 35.1016 6.24547 35.1016 11.6556C35.1016 16.2062 32.4785 20.6985 28.0338 21.7475V21.864C32.82 22.5682 33.6786 26.1232 33.6786 30.3823C33.6786 35.2388 34.9308 37.0309 34.9308 39.0172C34.9308 41.2318 32.7061 42.747 30.5384 42.747C25.4107 42.747 25.0123 37.6768 25.0123 35.9819C25.0123 28.634 23.7031 25.6569 18.5754 25.6569H9.34461V37.9682C9.34461 40.8238 7.51838 42.747 4.67231 42.747C1.82623 42.747 0 40.8044 0 37.9682V5.59956ZM9.34461 18.6684H18.6892C22.2231 18.6684 25.757 17.7311 25.757 13.0106C25.757 8.51346 23.0769 7.35276 18.9738 7.35276H9.34461V18.6684Z" fill="white"/>
<path d="M55.9538 42.7567C56.2811 42.7567 56.6274 42.7567 56.9784 42.7324L67.1579 32.3103C66.6731 32.041 66.1299 31.9007 65.5783 31.9023C62.2247 31.9023 62.2247 36.1032 55.9538 36.1032C51.1108 36.1032 48.26 32.8397 48.26 28.3328H67.063C69.8569 28.3328 70.7155 27.5752 70.7155 24.6564C70.7155 17.6533 65.2415 10.7134 55.6645 10.7134C45.8123 10.7134 39.9447 17.3668 39.9447 27.2838C39.9447 34.7094 44.3276 42.7567 55.9538 42.7567ZM55.84 16.682C59.5446 16.682 62.3907 19.5425 62.8508 23.452H48.26C49.1707 19.3046 51.68 16.682 55.84 16.682Z" fill="white"/>
</g>
<defs>
<clipPath id="clip0_16_106">
<rect width="240" height="44" fill="white"/>
</clipPath>
</defs>
</svg>
